<?xml version="1.0" standalone="no"?>
<!DOCTYPE svg PUBLIC "-//W3C//DTD SVG 20010904//EN"
 "http://www.w3.org/TR/2001/REC-SVG-20010904/DTD/svg10.dtd">
<svg version="1.0" xmlns="http://www.w3.org/2000/svg"
 width="416.000000pt" height="222.000000pt" viewBox="0 0 416.000000 222.000000"
 preserveAspectRatio="xMidYMid meet">

<g transform="translate(0.000000,222.000000) scale(0.100000,-0.100000)"
fill="#000000" stroke="none">
<path d="M36 2189 l-26 -20 0 -245 0 -244 30 0 30 0 0 208 c0 172 3 211 16
230 15 22 19 22 230 22 l214 0 0 35 0 35 -234 0 c-221 0 -235 -1 -260 -21z"/>
<path d="M196 1918 c-14 -20 -16 -84 -16 -504 0 -473 0 -482 21 -508 l21 -26
311 2 312 3 0 125 0 125 -197 3 -198 2 0 400 0 400 -119 0 c-113 0 -121 -1
-135 -22z"/>
<path d="M590 1810 l0 -130 200 0 200 0 0 -200 0 -200 130 0 130 0 0 313 c0
291 -1 315 -18 330 -16 15 -54 17 -330 17 l-312 0 0 -130z"/>
<path d="M1370 1820 l0 -120 390 0 390 0 0 -80 0 -80 -390 0 -390 0 0 -330 0
-330 120 0 120 0 0 206 0 206 64 -59 c35 -32 133 -124 219 -206 l155 -147 185
2 185 3 -209 203 -208 202 215 0 214 0 0 325 0 325 -530 0 -530 0 0 -120z"/>
<path d="M2550 1410 l0 -530 125 0 125 0 0 530 0 530 -125 0 -125 0 0 -530z"/>
<path d="M2920 1610 l0 -330 350 0 350 0 0 -65 0 -65 -347 -2 -348 -3 -3 -132
-3 -133 519 0 520 0 6 31 c8 40 8 602 0 623 -5 14 -46 16 -350 16 l-344 0 0
65 0 65 350 0 350 0 0 130 0 130 -525 0 -525 0 0 -330z"/>
<path d="M590 1415 l0 -135 130 0 130 0 0 135 0 135 -130 0 -130 0 0 -135z
m180 0 l0 -55 -50 0 -50 0 0 55 0 55 50 0 50 0 0 -55z"/>
<path d="M4090 946 c0 -191 -1 -205 -21 -230 l-20 -26 -209 0 c-183 0 -209 -2
-214 -16 -4 -9 -4 -25 -1 -35 6 -18 21 -19 246 -19 226 0 240 1 259 20 19 19
20 33 20 265 l0 245 -30 0 -30 0 0 -204z"/>
<path d="M990 875 l0 -265 130 0 130 0 0 265 0 265 -130 0 -130 0 0 -265z"/>
<path d="M1734 537 c-20 -18 -27 -33 -28 -66 -1 -50 27 -81 76 -81 16 0 42 -7
58 -15 31 -16 43 -3 13 13 -14 8 -15 15 -4 53 26 95 -46 155 -115 96z m82 -41
c14 -57 -17 -103 -53 -80 -22 13 -29 70 -12 90 19 23 58 18 65 -10z"/>
<path d="M2460 535 c0 -21 -5 -25 -29 -25 -36 0 -54 -21 -53 -61 1 -45 17 -58
68 -56 l44 2 0 83 c0 66 -3 82 -15 82 -9 0 -15 -9 -15 -25z m-12 -87 c-3 -36
-15 -42 -31 -17 -13 21 -2 49 18 49 12 0 15 -8 13 -32z"/>
<path d="M3290 534 c0 -21 -4 -25 -19 -21 -32 8 -61 -20 -61 -58 0 -44 22 -65
71 -65 l39 0 0 85 c0 69 -3 85 -15 85 -10 0 -15 -10 -15 -26z m-5 -84 c0 -28
-4 -36 -22 -38 -14 -2 -23 3 -28 17 -10 34 4 63 28 59 18 -2 22 -10 22 -38z"/>
<path d="M1890 470 c0 -64 3 -80 15 -80 10 0 15 11 15 35 0 25 5 35 15 35 9 0
23 -16 32 -35 20 -43 48 -50 32 -8 -5 15 -7 44 -4 65 9 51 -6 68 -61 68 l-44
0 0 -80z m68 33 c-5 -25 -28 -28 -28 -4 0 12 6 21 16 21 9 0 14 -7 12 -17z"/>
<path d="M2127 536 c-28 -22 -41 -72 -27 -105 16 -39 60 -57 92 -39 22 12 22
13 -17 18 l-40 5 0 50 0 50 38 3 c38 3 49 15 21 26 -24 9 -47 7 -67 -8z"/>
<path d="M2738 539 c-27 -15 -22 -46 12 -71 17 -12 30 -31 30 -41 0 -17 -5
-19 -35 -14 -49 8 -48 -20 0 -29 27 -5 41 -2 55 11 30 27 25 53 -15 77 -43 25
-44 54 -1 51 17 -1 26 2 23 10 -5 16 -47 20 -69 6z"/>
<path d="M2850 526 c0 -8 -6 -17 -12 -20 -10 -5 -10 -7 0 -12 6 -3 12 -22 12
-43 0 -40 14 -61 42 -61 22 0 24 18 3 26 -9 4 -15 19 -15 40 0 24 5 34 15 34
8 0 15 5 15 10 0 6 -7 10 -15 10 -8 0 -15 7 -15 15 0 8 -7 15 -15 15 -8 0 -15
-6 -15 -14z"/>
<path d="M2256 495 c-25 -25 -29 -54 -12 -80 22 -33 56 -36 88 -8 25 23 28 51
6 78 -22 28 -59 33 -82 10z m64 -45 c0 -36 -3 -40 -24 -40 -16 0 -27 7 -31 20
-10 33 4 60 31 60 21 0 24 -4 24 -40z"/>
<path d="M2542 494 c-26 -18 -30 -65 -6 -88 17 -18 84 -22 84 -6 0 6 -16 10
-35 10 -24 0 -35 5 -35 15 0 10 10 15 34 15 45 0 54 16 25 46 -26 28 -37 29
-67 8z m58 -19 c0 -9 -9 -15 -25 -15 -16 0 -25 6 -25 15 0 9 9 15 25 15 16 0
25 -6 25 -15z"/>
<path d="M3070 451 c0 -47 3 -61 14 -61 11 0 16 14 18 48 3 40 6 47 26 50 20
3 22 0 22 -47 0 -29 5 -51 10 -51 7 0 10 22 8 58 l-3 57 -47 3 -48 3 0 -60z"/>
<path d="M3365 500 c-6 -10 1 -14 19 -11 5 1 16 -1 24 -4 11 -4 6 -11 -19 -24
-61 -33 -48 -71 24 -71 l37 0 0 48 c0 26 -5 53 -12 60 -15 15 -64 16 -73 2z
m53 -72 c-7 -19 -38 -22 -38 -4 0 10 9 16 21 16 12 0 19 -5 17 -12z"/>
<path d="M3490 450 c0 -33 4 -60 10 -60 6 0 10 15 10 34 0 47 9 66 31 66 10 0
19 5 19 10 0 6 -16 10 -35 10 l-35 0 0 -60z"/>
<path d="M2945 490 c-7 -11 0 -13 28 -11 9 1 17 -3 17 -8 0 -6 -9 -11 -20 -11
-35 0 -50 -60 -17 -73 7 -2 27 -2 45 0 30 5 32 8 32 47 0 23 -5 47 -12 54 -15
15 -64 16 -73 2z m50 -70 c-3 -5 -13 -10 -21 -10 -8 0 -14 5 -14 10 0 6 9 10
21 10 11 0 17 -4 14 -10z"/>
<path d="M2194 227 c-3 -8 -4 -45 -2 -83 l3 -68 34 -7 c28 -6 38 -3 57 17 28
27 30 51 8 82 -10 14 -25 22 -45 22 -24 0 -29 4 -29 25 0 27 -17 34 -26 12z
m76 -98 c0 -36 -2 -40 -22 -37 -40 5 -37 78 2 78 17 0 20 -6 20 -41z"/>
<path d="M3151 226 c-7 -9 -11 -41 -9 -83 3 -74 21 -90 26 -23 4 53 21 51 51
-5 37 -70 51 -60 51 35 0 47 -4 80 -10 80 -5 0 -10 -16 -10 -35 0 -47 -19 -45
-48 5 -24 43 -33 48 -51 26z"/>
<path d="M3552 231 c4 -13 18 -16 19 -4 0 4 -5 9 -11 12 -7 2 -11 -2 -8 -8z"/>
<path d="M4040 155 c0 -47 4 -85 9 -85 14 0 21 28 21 85 0 57 -7 85 -21 85 -5
0 -9 -38 -9 -85z"/>
<path d="M1710 149 c0 -60 3 -80 13 -77 6 3 13 17 15 31 2 20 9 27 25 27 30 1
57 23 57 47 0 30 -32 53 -73 53 l-37 0 0 -81z m68 35 c2 -15 -4 -23 -17 -27
-18 -4 -21 0 -21 25 0 23 4 29 18 26 9 -2 18 -13 20 -24z"/>
<path d="M2013 192 l-33 -3 0 -60 c0 -46 3 -59 15 -59 11 0 15 12 15 45 0 38
3 45 19 45 16 0 20 -8 23 -42 4 -59 28 -63 28 -4 0 42 2 46 25 46 23 0 25 -4
25 -45 0 -33 4 -45 15 -45 24 0 20 85 -6 111 -16 16 -23 18 -35 8 -10 -8 -22
-9 -37 -3 -12 5 -37 8 -54 6z"/>
<path d="M2747 192 c-27 -3 -28 -5 -25 -58 4 -66 21 -75 28 -14 5 43 6 45 45
52 22 4 48 7 58 7 28 1 19 -26 -13 -38 -33 -11 -49 -36 -33 -52 6 -6 29 -13
52 -16 l41 -6 0 50 c0 32 -5 55 -14 62 -15 12 -87 19 -139 13z m118 -81 c7
-12 -12 -24 -25 -16 -11 7 -4 25 10 25 5 0 11 -4 15 -9z"/>
<path d="M1853 178 c-27 -13 -30 -53 -7 -86 12 -18 24 -22 50 -20 41 4 50 22
14 26 -42 6 -47 22 -7 22 30 0 37 4 37 19 0 24 -26 51 -48 50 -9 0 -27 -5 -39
-11z m57 -23 c0 -8 -9 -15 -20 -15 -11 0 -20 7 -20 15 0 8 9 15 20 15 11 0 20
-7 20 -15z"/>
<path d="M2353 184 c-25 -11 -13 -20 18 -16 26 4 30 2 27 -14 -2 -10 -14 -21
-27 -24 -63 -15 -47 -70 20 -70 l39 0 0 48 c0 26 -4 52 -8 59 -9 14 -52 24
-69 17z m47 -79 c0 -8 -9 -15 -20 -15 -11 0 -20 7 -20 15 0 8 9 15 20 15 11 0
20 -7 20 -15z"/>
<path d="M2460 176 c0 -7 7 -33 15 -56 8 -23 15 -56 15 -72 0 -42 23 -22 39
34 7 24 19 53 27 66 14 22 12 42 -6 42 -4 0 -13 -13 -19 -30 -5 -16 -15 -30
-20 -30 -6 0 -17 14 -26 30 -17 33 -25 38 -25 16z"/>
<path d="M2597 183 c-28 -7 -14 -28 16 -25 32 4 37 -15 6 -20 -30 -4 -47 -33
-33 -55 8 -13 23 -18 50 -17 38 1 39 1 42 42 5 70 -18 91 -81 75z m53 -78 c0
-8 -9 -15 -20 -15 -11 0 -20 7 -20 15 0 8 9 15 20 15 11 0 20 -7 20 -15z"/>
<path d="M2940 130 c0 -46 3 -60 14 -60 11 0 16 14 18 48 3 40 6 47 26 50 20
3 22 0 22 -48 0 -37 4 -50 13 -48 16 6 21 57 8 91 -9 24 -16 27 -56 27 l-45 0
0 -60z"/>
<path d="M3333 183 c-24 -9 -13 -23 20 -23 l32 -1 -38 -20 c-29 -15 -38 -25
-35 -42 3 -19 10 -22 51 -25 l47 -3 0 54 c0 41 -4 56 -16 61 -18 7 -43 7 -61
-1z m37 -73 c0 -11 -7 -20 -15 -20 -8 0 -15 9 -15 20 0 11 7 20 15 20 8 0 15
-9 15 -20z"/>
<path d="M3452 178 c-19 -19 -14 -37 13 -50 33 -15 32 -38 -2 -38 -19 0 -24
-3 -16 -11 6 -6 23 -9 39 -7 37 4 43 33 13 61 l-22 20 24 9 c19 7 21 11 9 18
-21 13 -44 12 -58 -2z"/>
<path d="M3554 176 c-9 -24 1 -99 14 -104 9 -3 12 13 12 57 0 57 -13 81 -26
47z"/>
<path d="M3637 172 c-24 -26 -22 -79 2 -92 61 -32 114 28 81 91 -14 25 -61 25
-83 1z m61 -39 c-2 -30 -7 -39 -25 -41 -17 -3 -24 3 -29 22 -9 37 2 56 31 56
24 0 26 -3 23 -37z"/>
<path d="M3767 183 c-8 -14 8 -108 18 -108 6 0 11 21 13 48 3 38 7 47 22 47
15 0 19 -9 22 -47 2 -27 8 -48 13 -48 15 0 18 84 4 101 -12 14 -85 20 -92 7z"/>
<path d="M3915 181 c-7 -13 10 -22 28 -15 29 11 27 -15 -3 -28 -58 -25 -45
-68 21 -68 l39 0 0 48 c0 26 -5 53 -12 60 -14 14 -64 16 -73 3z m55 -76 c0 -8
-9 -15 -20 -15 -11 0 -20 7 -20 15 0 8 9 15 20 15 11 0 20 -7 20 -15z"/>
</g>
</svg>
